<svg width="130" height="81" viewBox="0 0 130 81" fill="none" xmlns="http://www.w3.org/2000/svg">
<path d="M33.9754 49.3648C47.6344 49.3648 58.7073 38.3141 58.7073 24.6824C58.7073 11.0507 47.6344 0 33.9754 0C20.3164 0 9.24356 11.0507 9.24356 24.6824C9.24356 38.3141 20.3164 49.3648 33.9754 49.3648Z" fill="#F2F2F2"/>
<path d="M0 5.92636C0 14.9068 5.64514 22.1737 12.6215 22.1737Z" fill="#2F2E41"/>
<path d="M12.6215 22.1737C12.6215 13.0923 18.9211 5.74382 26.7063 5.74382Z" fill="#86B049"/>
<path d="M4.573 6.74046C4.573 15.2709 8.1728 22.1737 12.6215 22.1737Z" fill="#86B049"/>
<path d="M12.6215 22.1737C12.6215 10.5697 19.9029 1.17996 28.9013 1.17996Z" fill="#2F2E41"/>
<path d="M9.96622 22.2882C9.96622 22.2882 11.7561 22.2332 12.2956 21.8498C12.835 21.4665 15.0489 21.0087 15.1828 21.6235C15.3166 22.2384 17.8727 24.6814 15.8519 24.6977C13.8311 24.714 11.1564 24.3835 10.618 24.0562C10.0796 23.7289 9.96622 22.2882 9.96622 22.2882Z" fill="#A8A8A8"/>
<path opacity="0.2" d="M15.888 24.4837C13.8672 24.4999 11.1925 24.1695 10.6541 23.8422C10.2441 23.593 10.0807 22.6985 10.026 22.2859C9.98814 22.2875 9.96625 22.2882 9.96625 22.2882C9.96625 22.2882 10.0796 23.7289 10.618 24.0562C11.1564 24.3835 13.8311 24.7139 15.8519 24.6977C16.4352 24.693 16.6367 24.4859 16.6257 24.1791C16.5446 24.3644 16.3221 24.4802 15.888 24.4837Z" fill="black"/>
<path d="M23.0609 52.139C35.0526 52.139 44.7738 50.8191 44.7738 49.191C44.7738 47.5628 35.0526 46.243 23.0609 46.243C11.0692 46.243 1.34796 47.5628 1.34796 49.191C1.34796 50.8191 11.0692 52.139 23.0609 52.139Z" fill="#3F3D56"/>
<path opacity="0.1" d="M23.0609 51.666C33.1288 51.666 41.2905 50.5579 41.2905 49.191C41.2905 47.8241 33.1288 46.7159 23.0609 46.7159C12.993 46.7159 4.83133 47.8241 4.83133 49.191C4.83133 50.5579 12.993 51.666 23.0609 51.666Z" fill="black"/>
<path d="M97.1403 81C115.288 81 130 79.0026 130 76.5386C130 74.0747 115.288 72.0773 97.1403 72.0773C78.9924 72.0773 64.2806 74.0747 64.2806 76.5386C64.2806 79.0026 78.9924 81 97.1403 81Z" fill="#3F3D56"/>
<path d="M36.0654 77.4804C46.967 77.4804 55.8045 76.2805 55.8045 74.8004C55.8045 73.3203 46.967 72.1205 36.0654 72.1205C25.1639 72.1205 16.3264 73.3203 16.3264 74.8004C16.3264 76.2805 25.1639 77.4804 36.0654 77.4804Z" fill="#3F3D56"/>
<path d="M53.7144 72.5407C64.1645 75.206 84.2519 69.0643 86.458 62.1116" stroke="#2F2E41" stroke-width="2" stroke-miterlimit="10"/>
<path d="M35.9493 30.0129C35.9493 30.0129 51.0439 25.8412 51.9728 39.2832C52.9017 52.7253 39.5488 56.5493 49.9989 59.2146" stroke="#2F2E41" stroke-width="2" stroke-miterlimit="10"/>
<path d="M21.3659 62.2603C21.3659 62.2603 25.9027 61.0065 26.1819 65.0466C26.4611 69.0867 22.4478 70.236 25.5886 71.0371" stroke="#2F2E41" stroke-width="2" stroke-miterlimit="10"/>
<path d="M90.4169 65.2681L89.5023 71.0964C89.5023 71.0964 84.9992 73.4838 88.1654 73.554C91.3316 73.6243 106.248 73.554 106.248 73.554C106.248 73.554 109.133 73.554 104.559 71.0261L103.645 64.9171L90.4169 65.2681Z" fill="#2F2E41"/>
<path opacity="0.1" d="M87.5285 73.4908C88.2476 72.8522 89.5022 72.1869 89.5022 72.1869L90.4169 66.3587L103.645 66.3711L104.559 72.1167C105.626 72.7062 106.286 73.1581 106.673 73.5047C107.26 73.3709 107.902 72.8739 104.559 71.0261L103.645 64.9171L90.4169 65.2681L89.5023 71.0963C89.5023 71.0963 85.7184 73.1028 87.5285 73.4908Z" fill="black"/>
<path d="M124.662 24.6463H69.2583C68.1011 24.6463 67.163 25.5825 67.163 26.7374V63.9846C67.163 65.1395 68.1011 66.0757 69.2583 66.0757H124.662C125.82 66.0757 126.758 65.1395 126.758 63.9846V26.7374C126.758 25.5825 125.82 24.6463 124.662 24.6463Z" fill="#2F2E41"/>
<path d="M124.753 26.8582H69.1682V57.8951H124.753V26.8582Z" fill="#3F3D56"/>
<path d="M96.9604 26.2262C97.1547 26.2262 97.3122 26.0691 97.3122 25.8752C97.3122 25.6813 97.1547 25.5241 96.9604 25.5241C96.7661 25.5241 96.6086 25.6813 96.6086 25.8752C96.6086 26.0691 96.7661 26.2262 96.9604 26.2262Z" fill="#F2F2F2"/>
<path d="M126.758 60.3528V63.9845C126.758 64.2591 126.704 64.5311 126.598 64.7848C126.493 65.0385 126.339 65.2691 126.144 65.4633C125.95 65.6574 125.719 65.8115 125.464 65.9165C125.21 66.0216 124.938 66.0757 124.662 66.0757H69.2583C68.9831 66.0757 68.7106 66.0216 68.4564 65.9165C68.2022 65.8115 67.9712 65.6574 67.7766 65.4633C67.582 65.2691 67.4277 65.0385 67.3224 64.7848C67.2171 64.5311 67.1629 64.2591 67.163 63.9845V60.3528H126.758Z" fill="#2F2E41"/>
<path d="M112.51 77.3459V78.0481H74.6563V77.4863L74.7084 77.3459L75.6414 74.8179H111.736L112.51 77.3459Z" fill="#2F2E41"/>
<path d="M127.077 76.6584C127.008 76.9526 126.748 77.263 126.16 77.5565C124.049 78.6098 119.757 77.2757 119.757 77.2757C119.757 77.2757 116.45 76.7139 116.45 75.2393C116.543 75.1758 116.64 75.1184 116.74 75.0672C117.627 74.5987 120.57 73.4425 125.787 75.1162C126.171 75.2366 126.515 75.4611 126.779 75.7648C126.99 76.0118 127.156 76.3251 127.077 76.6584Z" fill="#2F2E41"/>
<path opacity="0.1" d="M127.077 76.6584C124.494 77.6464 122.191 77.7201 119.827 76.0819C118.635 75.2561 117.553 75.0518 116.74 75.0672C117.627 74.5986 120.57 73.4424 125.787 75.1162C126.171 75.2366 126.515 75.4611 126.779 75.7648C126.99 76.0118 127.156 76.3251 127.077 76.6584Z" fill="black"/>
<path d="M123.838 76.0819C124.343 76.0819 124.753 75.9561 124.753 75.801C124.753 75.6459 124.343 75.5201 123.838 75.5201C123.333 75.5201 122.923 75.6459 122.923 75.801C122.923 75.9561 123.333 76.0819 123.838 76.0819Z" fill="#F2F2F2"/>
<path d="M96.9604 64.566C97.6987 64.566 98.2972 63.9686 98.2972 63.2318C98.2972 62.4949 97.6987 61.8976 96.9604 61.8976C96.2221 61.8976 95.6235 62.4949 95.6235 63.2318C95.6235 63.9686 96.2221 64.566 96.9604 64.566Z" fill="#F2F2F2"/>
<path opacity="0.1" d="M112.51 77.3459V78.0481H74.6563V77.4863L74.7084 77.3459H112.51Z" fill="black"/>
<path d="M36.7621 18.4249H12.6108V46.4678H36.7621V18.4249Z" fill="#2F2E41"/>
<path d="M39.2005 15.6438H10.1725V25.6094H39.2005V15.6438Z" fill="#3F3D56"/>
<path d="M39.2005 27.4635H10.1725V37.4292H39.2005V27.4635Z" fill="#3F3D56"/>
<path d="M39.2005 39.2833H10.1725V49.2489H39.2005V39.2833Z" fill="#3F3D56"/>
<path opacity="0.4" d="M33.3948 17.382H31.537V19.2361H33.3948V17.382Z" fill="#86B049"/>
<path opacity="0.8" d="M36.0654 17.382H34.2076V19.2361H36.0654V17.382Z" fill="#86B049"/>
<path d="M38.736 17.382H36.8782V19.2361H38.736V17.382Z" fill="#86B049"/>
<path opacity="0.4" d="M33.3948 29.0858H31.537V30.9399H33.3948V29.0858Z" fill="#86B049"/>
<path opacity="0.8" d="M36.0654 29.0858H34.2076V30.9399H36.0654V29.0858Z" fill="#86B049"/>
<path d="M38.736 29.0858H36.8782V30.9399H38.736V29.0858Z" fill="#86B049"/>
<path opacity="0.4" d="M33.3948 40.7897H31.537V42.6438H33.3948V40.7897Z" fill="#86B049"/>
<path opacity="0.8" d="M36.0654 40.7897H34.2076V42.6438H36.0654V40.7897Z" fill="#86B049"/>
<path d="M38.736 40.7897H36.8782V42.6438H38.736V40.7897Z" fill="#86B049"/>
<path d="M36.7621 71.4979C41.8281 71.4979 45.9349 67.3993 45.9349 62.3434C45.9349 57.2875 41.8281 53.1889 36.7621 53.1889C31.6961 53.1889 27.5893 57.2875 27.5893 62.3434C27.5893 67.3993 31.6961 71.4979 36.7621 71.4979Z" fill="#2F2E41"/>
<path d="M35.3688 69.5279H32.5821V74.5107H35.3688V69.5279Z" fill="#2F2E41"/>
<path d="M40.9421 69.5279H38.1555V74.5107H40.9421V69.5279Z" fill="#2F2E41"/>
<path d="M34.9043 75.4378C36.1868 75.4378 37.2265 75.0487 37.2265 74.5687C37.2265 74.0887 36.1868 73.6996 34.9043 73.6996C33.6218 73.6996 32.5821 74.0887 32.5821 74.5687C32.5821 75.0487 33.6218 75.4378 34.9043 75.4378Z" fill="#2F2E41"/>
<path d="M40.4777 75.3219C41.7602 75.3219 42.7999 74.9328 42.7999 74.4528C42.7999 73.9728 41.7602 73.5837 40.4777 73.5837C39.1952 73.5837 38.1555 73.9728 38.1555 74.4528C38.1555 74.9328 39.1952 75.3219 40.4777 75.3219Z" fill="#2F2E41"/>
<path d="M36.9943 63.1545C38.7258 63.1545 40.1294 61.7537 40.1294 60.0258C40.1294 58.2978 38.7258 56.897 36.9943 56.897C35.2629 56.897 33.8593 58.2978 33.8593 60.0258C33.8593 61.7537 35.2629 63.1545 36.9943 63.1545Z" fill="white"/>
<path d="M36.9943 61.0687C37.5714 61.0687 38.0393 60.6017 38.0393 60.0258C38.0393 59.4498 37.5714 58.9828 36.9943 58.9828C36.4172 58.9828 35.9493 59.4498 35.9493 60.0258C35.9493 60.6017 36.4172 61.0687 36.9943 61.0687Z" fill="#3F3D56"/>
<path d="M27.8641 53.8299C27.1235 50.5195 29.4911 47.1745 33.1523 46.3586C36.8136 45.5427 40.3821 47.5649 41.1227 50.8753C41.8634 54.1857 39.4369 55.4067 35.7757 56.2226C32.1144 57.0384 28.6048 57.1403 27.8641 53.8299Z" fill="#86B049"/>
<path d="M45.3653 60.5175C47.694 59.5228 49.3281 58.125 49.0152 57.3954C48.7023 56.6658 46.5609 56.8807 44.2323 57.8754C41.9036 58.8701 40.2695 60.2679 40.5823 60.9975C40.8952 61.7271 43.0367 61.5122 45.3653 60.5175Z" fill="#2F2E41"/>
<path d="M28.1808 66.6591C30.5094 65.6644 32.1436 64.2666 31.8307 63.5371C31.5178 62.8075 29.3764 63.0224 27.0477 64.0171C24.719 65.0118 23.0849 66.4096 23.3978 67.1391C23.7107 67.8687 25.8521 67.6538 28.1808 66.6591Z" fill="#2F2E41"/>
<path d="M42.1033 65.0086C42.1033 65.9046 39.7916 67.6738 37.2265 67.6738C34.6615 67.6738 32.2337 66.0205 32.2337 65.1245C32.2337 64.2285 34.6615 64.4292 37.2265 64.4292C39.7916 64.4292 42.1033 64.1126 42.1033 65.0086Z" fill="white"/>
</svg>
