<svg width="64" height="39" viewBox="0 0 64 39" fill="none" xmlns="http://www.w3.org/2000/svg">
<ellipse cx="32.0002" cy="19.5002" rx="32.0002" ry="19.5" fill="#607324"/>
<path d="M28.1998 0.0297133C27.8298 0.0395993 26.8298 0.0840845 25.9748 0.123629C25.1247 0.168116 23.9197 0.222489 23.2997 0.247204C22.0397 0.296634 21.5647 0.341121 20.4747 0.519069C20.0647 0.583328 19.3897 0.687131 18.9747 0.741504C17.4297 0.94911 16.2497 1.18143 14.3497 1.63619C11.5897 2.3035 10.4397 2.81757 9.45465 3.83088C9.08965 4.21149 9.03465 4.24609 8.81465 4.27575C8.45464 4.32518 7.67464 4.5229 7.24964 4.67119C6.05463 5.09629 4.97462 5.902 4.61962 6.63851C4.55962 6.76208 4.39962 6.92026 4.12962 7.11798C2.53461 8.27464 1.5046 9.98987 1.4996 11.5024C1.4996 11.9028 1.4946 11.9127 1.2796 12.2192C0.749597 12.9754 0.379595 13.9443 0.144593 15.1998C-0.100408 16.4949 0.0345928 19.2036 0.404595 20.3899C0.769597 21.5664 1.6996 23.074 2.83461 24.3444C3.04961 24.5866 3.41961 25.0314 3.64961 25.333C5.00462 27.0927 6.48463 28.4223 8.06464 29.2972C8.46964 29.5197 8.69465 29.6927 9.15965 30.1376C10.1297 31.057 11.1147 31.7341 12.3747 32.3322C12.9447 32.6041 13.0947 32.698 13.1947 32.8414C13.3247 33.0391 13.8297 33.4889 14.2247 33.7707C15.2097 34.4627 16.7947 35.0904 18.7747 35.565C19.7747 35.8072 19.8847 35.8467 20.2547 36.084C20.4297 36.1977 20.8447 36.4201 21.1747 36.5783C22.4347 37.1813 23.8247 37.5273 25.7498 37.7201C26.0998 37.7547 26.3948 37.8091 26.4998 37.8635C26.7698 38.0019 27.4348 38.1897 28.1248 38.3331C28.8598 38.4813 29.6198 38.5604 30.6248 38.5851C31.2148 38.6 31.8798 38.6494 32.2498 38.7038C33.7648 38.9361 34.2698 38.9707 36.0748 38.9707C37.8448 38.9707 38.3248 38.9361 39.7998 38.7236C42.2599 38.3677 45.1449 37.5273 46.7999 36.687C47.1999 36.4844 47.9249 36.1186 48.4099 35.8813C49.8049 35.1992 50.5449 34.7395 51.5699 33.9288C53.4049 32.4707 55.1099 30.2364 55.8749 28.2889C56.1099 27.6759 56.5149 26.0398 56.9449 23.9489C57.535 21.0721 57.815 20.0785 58.325 19.0751C58.745 18.2546 59.38 17.5329 60.12 17.0485C60.655 16.6926 60.92 16.5542 61.805 16.1835C62.895 15.7287 63.24 15.5409 63.555 15.2295C63.775 15.012 63.86 14.8834 63.92 14.6808C64.07 14.1766 63.99 13.6427 63.645 12.9013C63.46 12.5157 63.385 12.4218 62.685 11.7249C61.445 10.4891 60.125 9.33739 58.725 8.27464C57.5499 7.3849 55.6749 6.07995 55.1249 5.76854C54.9049 5.64497 54.3299 5.31873 53.8499 5.04192C52.9399 4.5229 51.1749 3.64305 50.0999 3.1784C46.3449 1.54721 42.5649 0.573443 38.6748 0.242262C36.8948 0.0939718 30.6998 -0.0345458 28.1998 0.0297133ZM36.6748 0.524014C37.5548 0.563558 38.4648 0.61793 38.6998 0.637702L39.1248 0.677246L38.4898 0.687132C37.9798 0.692075 35.4148 0.558614 34.5248 0.479526C33.9548 0.430095 35.2748 0.454812 36.6748 0.524014ZM25.3997 0.662417C25.3997 0.677246 25.2697 0.721732 25.1147 0.766219C24.5647 0.924395 23.8697 1.20121 23.2347 1.51261C22.4747 1.89323 22.4697 1.89323 20.9747 1.70045C19.8147 1.55216 18.5397 1.43353 18.4897 1.46813C18.4647 1.47801 18.4497 1.46813 18.4497 1.44341C18.4497 1.4187 18.4997 1.3841 18.5647 1.36927C18.6247 1.35938 18.9847 1.26546 19.3647 1.1666C20.4147 0.894739 22.6897 0.657475 24.3647 0.647589C24.9347 0.647589 25.3997 0.652531 25.3997 0.662417ZM33.5498 0.820594C35.1048 0.894739 37.1048 1.0282 37.1298 1.05291C37.1398 1.0628 36.9398 1.15177 36.6848 1.25558C35.9048 1.58182 34.6548 2.19969 33.9748 2.60996C32.6448 3.40578 31.7598 4.08792 30.6448 5.18527C29.5348 6.28261 28.8398 7.15753 28.0898 8.39822C27.6998 9.04081 27.0398 10.3556 26.8248 10.9241C26.7448 11.1268 26.6698 11.3096 26.6548 11.3294C26.6398 11.3442 26.4098 11.3986 26.1498 11.4382C24.2847 11.7496 21.9347 12.496 20.0697 13.3709L19.4147 13.6773L19.2747 13.3511C18.6447 11.9127 17.6797 10.2321 17.1697 9.6834C17.1047 9.6142 17.0497 9.52028 17.0497 9.47085C17.0497 9.33739 18.1997 7.12292 18.6347 6.41113C19.9747 4.24115 21.5747 2.75331 23.5997 1.78448C24.5747 1.32478 25.4898 1.03314 26.6748 0.810707C26.9698 0.756334 29.5548 0.706904 30.8998 0.726676C31.5448 0.736562 32.7398 0.78105 33.5498 0.820594ZM40.9798 1.2012C41.4648 1.28029 42.0799 1.43847 42.3899 1.56699C42.4899 1.60653 42.7549 1.79436 42.9749 1.97726C43.4699 2.39247 44.8949 3.72708 45.0699 3.93963L45.1999 4.09286L44.5699 4.57728C41.6449 6.8214 39.7048 8.98149 37.8548 12.0412L37.4948 12.6393L37.0198 12.8272C35.4698 13.4302 32.8548 14.8686 30.8898 16.1933C30.5098 16.4504 30.1898 16.658 30.1748 16.658C30.1648 16.658 29.9948 16.3416 29.7998 15.9561C29.5998 15.5705 29.3398 15.0762 29.2148 14.8587C28.8748 14.2557 27.9148 12.8519 27.4098 12.2142L26.9648 11.6507L27.1848 11.102C28.0648 8.92712 29.2798 7.08832 30.8998 5.48679C32.1348 4.26092 33.3398 3.38107 34.9998 2.49133C35.9248 1.99703 37.5548 1.30006 38.1748 1.132C38.4048 1.06774 40.4648 1.12211 40.9798 1.2012ZM43.4649 1.38409C44.2149 1.55216 45.0449 1.77954 44.6249 1.70045C43.5299 1.4879 42.8449 1.33467 42.6999 1.27041C42.6049 1.23086 42.5449 1.19132 42.5649 1.19132C42.5899 1.18638 42.9949 1.27535 43.4649 1.38409ZM17.2597 1.45824C17.1697 1.49778 16.9197 1.56204 16.7097 1.60159C16.4997 1.64113 16.1947 1.71033 16.0347 1.75482C15.8497 1.80425 15.7147 1.81414 15.6597 1.78448C15.6047 1.75482 15.6797 1.72022 15.9547 1.6609C17.2597 1.37915 17.5547 1.33466 17.2597 1.45824ZM18.7997 1.8784C19.4647 1.92288 21.8947 2.19969 21.9297 2.23923C21.9397 2.24912 21.7497 2.39741 21.5097 2.57042C20.8697 3.04 19.7047 4.21149 19.1397 4.95789C18.4897 5.82786 18.0347 6.57919 17.2947 8.02255L16.6697 9.24842L15.7197 9.75755C12.9547 11.2454 10.8047 12.7481 8.79465 14.5918C7.88464 15.4272 6.61463 16.8112 5.95963 17.6812C5.83463 17.8492 5.72463 17.9827 5.71963 17.9778C5.69963 17.958 5.55463 17.0534 5.50463 16.6333C5.28963 14.7698 5.48963 13.0002 6.08463 11.4184C6.69463 9.80203 7.74464 8.2351 9.22465 6.72748C10.6247 5.3039 12.9547 3.50959 14.1997 2.89171C15.4647 2.26395 16.4147 1.99208 17.7997 1.86357C17.8947 1.85368 17.9997 1.84379 18.0247 1.83885C18.0547 1.83391 18.3997 1.85368 18.7997 1.8784ZM15.1597 1.93277C15.2547 1.9822 15.2297 2.00691 14.8697 2.15026C14.2097 2.41718 13.5547 2.76319 12.9747 3.14875C12.3547 3.5689 11.2597 4.37461 10.8497 4.71074L10.5747 4.93812L10.3247 4.70085C10.1897 4.57233 9.97965 4.39933 9.86465 4.3153L9.64965 4.16701L9.91465 3.91986C10.7097 3.1784 11.8997 2.65445 13.9997 2.13049C15.1347 1.8438 15.0297 1.86357 15.1597 1.93277ZM44.3949 2.05635C45.8999 2.40236 47.4599 2.88183 48.7499 3.3959C49.1199 3.54419 49.4299 3.67271 49.4349 3.67765C49.4399 3.68259 48.9899 3.68754 48.4349 3.69248C47.4249 3.69248 46.8149 3.74685 46.0799 3.88526L45.6899 3.96434L44.9549 3.25255C44.5549 2.86205 44.0599 2.39247 43.8549 2.20958C43.6549 2.02669 43.5149 1.8784 43.5549 1.8784C43.5899 1.8784 43.9699 1.95749 44.3949 2.05635ZM50.3749 4.17689C51.5499 4.27575 52.1849 4.50313 53.3799 5.26435L53.7849 5.52139L53.8149 5.98109C53.8599 6.55942 53.8599 7.40962 53.8199 7.74574L53.7849 8.00278L53.1549 8.46742C51.2749 9.86135 50.1349 11.023 48.6999 13.0002C47.5999 14.5226 47.5549 14.577 47.2799 14.7154C46.0099 15.353 44.2199 16.7865 41.8099 19.0998C41.4298 19.4656 41.1248 19.7177 41.1048 19.693C41.0248 19.609 39.1148 15.6298 38.1248 13.4846L37.8348 12.8519L38.2498 12.1747C39.1048 10.7758 39.8548 9.71306 40.6898 8.72446C41.2398 8.07692 42.9749 6.38147 43.7049 5.78337C45.0649 4.66131 45.3749 4.44382 45.7049 4.36967C46.9899 4.07309 48.4099 4.01377 50.3749 4.17689ZM9.91465 4.86397C10.0997 5.0172 10.2497 5.16055 10.2497 5.18527C10.2497 5.20998 10.1447 5.31379 10.0147 5.41759C9.87965 5.52633 9.42965 5.95143 9.00965 6.37159L8.24464 7.13281L7.83464 7.04878C7.06964 6.89555 6.53963 6.8214 5.82963 6.76208C5.44463 6.73243 5.10962 6.69288 5.08462 6.67311C5.06462 6.65828 5.16462 6.51493 5.30463 6.3617C6.06463 5.51645 7.26964 4.948 8.86965 4.67614C9.11465 4.63165 9.33965 4.57728 9.36465 4.55256C9.42965 4.4883 9.49965 4.52785 9.91465 4.86397ZM55.3649 6.41607C56.1199 6.88566 56.6349 7.26627 57.0749 7.68148C57.3449 7.93852 57.3949 8.00772 57.2999 7.98795C56.5649 7.81989 56.2199 7.78529 55.2499 7.78529H54.2249V6.76208V5.73888L54.4999 5.89212C54.6499 5.97615 55.0399 6.20847 55.3649 6.41607ZM5.87463 7.16741C6.65963 7.23661 7.94964 7.43928 7.94964 7.49365C7.94964 7.50354 7.80464 7.69631 7.62964 7.91875C6.99964 8.7294 6.39963 9.69823 6.03463 10.5039L5.85463 10.8994L4.93962 10.929C3.79462 10.9686 3.04461 11.0872 2.22961 11.369C2.06461 11.4233 1.9246 11.4678 1.9096 11.4678C1.8996 11.4678 1.9046 11.3195 1.9246 11.1366C1.9996 10.4446 2.36961 9.58948 2.91461 8.84803C3.21461 8.44271 4.01962 7.66665 4.47462 7.35524C4.82962 7.10809 4.89462 7.07844 5.07462 7.09327C5.18462 7.10809 5.54463 7.13775 5.87463 7.16741ZM56.2349 8.20544C57.3149 8.34879 58.165 8.61077 58.72 8.97161C59.19 9.28302 59.76 9.72789 60.325 10.2321C60.74 10.6028 62.41 12.2241 62.385 12.234C62.38 12.234 62.13 12.2785 61.825 12.3279C59.45 12.7085 57.3399 13.7713 56.0149 15.2591C54.4899 16.9694 53.7249 19.1542 53.6149 22.1052C53.5949 22.6687 53.5499 22.9149 53.5499 22.9603C53.5499 23.0097 53.5449 23.0592 53.5449 23.1086V23.2173L53.0249 23.2964C52.4249 23.3904 51.5449 23.6622 51.1549 23.8748C51.0049 23.9588 50.8649 24.0231 50.8449 24.0231C50.7799 24.0231 50.2099 22.8219 49.8499 21.9272C49.0649 19.9797 48.4149 17.5181 48.0749 15.2097C48.0349 14.918 48.0149 14.6511 48.0349 14.6165C48.1299 14.4534 49.5149 12.5652 49.8699 12.1104C50.6849 11.0625 52.3799 9.49557 53.7249 8.54651C54.1049 8.27464 54.2099 8.22521 54.4499 8.2005C54.9149 8.15107 55.8249 8.15107 56.2349 8.20544ZM17.0547 10.1975C17.6147 10.934 18.2697 12.0857 18.7897 13.2621L19.0497 13.8454L18.6847 14.3743C17.5147 16.045 16.0597 18.4276 15.1097 20.2169C14.2597 21.8284 13.1647 24.3394 12.5447 26.0991C12.4847 26.2771 12.4197 26.4352 12.3997 26.455C12.3597 26.5044 11.7497 26.3364 11.3747 26.1733C10.5397 25.8025 9.61465 25.1352 8.69465 24.2257C6.95964 22.5006 5.74963 20.3257 5.74963 18.9169V18.6154L6.16963 18.0717C6.87464 17.1523 7.38464 16.5739 8.24964 15.699C9.71465 14.2211 11.0247 13.1435 12.7947 11.9671C14.1047 11.0971 16.4847 9.72789 16.6497 9.7526C16.6897 9.75754 16.8747 9.96021 17.0547 10.1975ZM5.63463 11.4283C5.61963 11.4925 5.54463 11.7644 5.45963 12.0363C5.30963 12.5503 5.19962 13.0446 5.09462 13.7169C5.00962 14.2359 5.01462 15.9956 5.09462 16.6728C5.12962 16.9694 5.14962 17.2165 5.14462 17.2264C5.13462 17.2363 4.80962 17.266 4.42462 17.3006C2.71461 17.434 1.8696 17.6614 0.974599 18.22C0.729597 18.3683 0.524596 18.4819 0.514596 18.4671C0.449595 18.4029 0.394595 17.2709 0.419595 16.6036C0.489596 14.8637 0.909598 13.4401 1.6796 12.3526C1.8246 12.145 1.9346 11.9621 1.9196 11.9473C1.8896 11.9176 2.29461 11.7644 2.77461 11.626C3.46461 11.4283 4.15462 11.3344 5.04462 11.3245C5.65963 11.3195 5.65963 11.3195 5.63463 11.4283ZM26.9048 12.2192C27.8498 13.3907 28.6198 14.5671 29.3148 15.9116L29.8148 16.8656L29.5348 17.6911C28.7948 19.8956 27.7648 22.4413 25.9998 26.4204C25.5748 27.3843 24.5197 29.8311 24.1397 30.7455L23.8197 31.5117L23.4947 31.5513C22.9697 31.6155 21.7847 31.5513 21.0447 31.4178C18.8847 31.0224 16.4697 29.8657 14.4847 28.274C13.6497 27.6018 12.7997 26.7664 12.7997 26.6082C12.7997 26.5341 13.2697 25.2835 13.6397 24.3691C14.8897 21.2896 16.2697 18.7291 18.4297 15.4865L19.2947 14.1914L19.8497 13.9146C20.9297 13.3808 22.3997 12.8123 23.7447 12.4119C24.3297 12.2389 25.8198 11.8929 26.5048 11.7693C26.5198 11.7644 26.6998 11.972 26.9048 12.2192ZM63.045 12.6887C63.23 12.8766 63.505 13.5439 63.565 13.964C63.69 14.834 63.45 15.0466 61.31 15.966C59.605 16.7025 58.645 17.5527 57.95 18.9565C57.4399 19.9797 57.1099 21.082 56.6999 23.1333C56.5149 24.0428 56.2049 25.4862 56.0949 25.9459L55.9849 26.4056L55.8749 26.1436C55.4799 25.1896 54.9449 24.374 54.2349 23.6424L53.9849 23.3854L54.0149 22.3325C54.0549 21.0523 54.1649 20.1576 54.4049 19.2086C55.2549 15.877 57.5299 13.7169 61.085 12.8815C61.515 12.7827 62.475 12.6097 62.865 12.5602C62.89 12.5553 62.97 12.6146 63.045 12.6887ZM38.3698 14.9526C38.7098 15.6842 39.1298 16.5739 39.2998 16.9298C39.4698 17.2808 39.7298 17.8146 39.8748 18.1162C40.0198 18.4127 40.3098 19.0108 40.5148 19.4359L40.8948 20.2169L40.5448 20.7706C40.0848 21.4972 39.2248 23.2223 38.8848 24.0972C37.8498 26.7467 37.2548 29.4356 36.7448 33.7509C36.6598 34.4973 36.6148 34.7148 36.5548 34.7444C36.3748 34.8384 34.6198 35.2288 33.8748 35.3376C32.0098 35.6144 30.2398 35.5106 28.8448 35.041C27.4048 34.5566 26.0498 33.6421 24.9147 32.3866C24.6797 32.1246 24.4297 31.833 24.3597 31.749L24.2397 31.5859L24.5047 30.9334C24.8297 30.1277 25.6097 28.3037 26.4098 26.4946C28.2548 22.3227 29.4498 19.342 30.0298 17.4835L30.1198 17.2017L30.8698 16.6876C32.9048 15.3085 34.9598 14.1519 36.8248 13.3462L37.4748 13.0644L37.6148 13.3412C37.6898 13.4945 38.0298 14.2161 38.3698 14.9526ZM47.8499 16.312C48.1349 17.9086 48.5549 19.52 49.0849 21.0573C49.4399 22.0805 50.0849 23.5535 50.4899 24.2603L50.6999 24.6212L50.3549 25.3478C49.1449 27.9181 48.2949 30.1326 47.9749 31.5611C47.9049 31.8874 47.8349 32.1988 47.8199 32.2532C47.8099 32.3075 47.5899 32.5102 47.3349 32.703C45.6249 34.0079 43.9349 34.7741 42.1499 35.0509C41.4798 35.1596 39.8848 35.13 38.9998 35.0015C38.3248 34.9026 37.0898 34.695 37.0598 34.6752C37.0498 34.6653 37.2148 33.1627 37.2998 32.5745C37.8448 28.6349 38.3348 26.5885 39.3548 23.9983C39.6548 23.2322 40.4698 21.6405 40.9498 20.8892C41.1698 20.5333 41.3448 20.2219 41.3298 20.1873C41.2948 20.0983 43.6549 17.8838 44.7849 16.9397C45.7199 16.1637 46.4499 15.6397 47.1749 15.2295L47.6249 14.9724L47.6849 15.358C47.7199 15.5705 47.7949 16.0006 47.8499 16.312ZM5.29463 17.953C5.32463 18.1261 5.35963 18.5512 5.36963 18.907C5.38963 19.8561 5.64963 20.6668 6.27463 21.7493L6.58963 22.293L6.37963 22.3424C5.09462 22.6736 4.36462 23.158 3.75462 24.0972L3.51461 24.4679L3.21461 24.1615C2.62961 23.5535 1.8496 22.4808 1.3896 21.6504C0.954598 20.8645 0.654597 19.9945 0.579596 19.2679L0.549596 18.9861L0.909598 18.734C1.3496 18.4276 1.9446 18.1409 2.43461 17.9975C2.95461 17.8443 4.14462 17.6861 5.05462 17.6515L5.22962 17.6466L5.29463 17.953ZM7.24964 23.2075C7.73964 23.8501 8.82465 24.9523 9.47465 25.4615L9.98965 25.8668L9.80965 26.02C9.31965 26.4451 8.70465 27.4881 8.39464 28.4322C8.30964 28.6991 8.22464 28.9166 8.20464 28.9166C8.12964 28.9166 7.00464 28.1455 6.55463 27.7847C5.76963 27.1569 4.77962 26.1337 4.02962 25.1748L3.78962 24.8683L3.91962 24.6063C4.26462 23.9143 4.80462 23.3904 5.52463 23.0542C5.88463 22.8862 6.80463 22.6291 6.84964 22.6835C6.86464 22.6983 7.04464 22.9356 7.24964 23.2075ZM53.5349 23.8105C53.5999 23.9637 53.6099 24.1318 53.5849 24.7645C53.5549 25.5307 53.4849 25.9904 53.3049 26.5934C52.8399 28.1505 51.7699 29.5048 50.0299 30.7406C49.3399 31.23 48.3799 31.8033 48.3599 31.744C48.3099 31.5859 48.9199 29.7125 49.4499 28.3976C50.0399 26.9444 51.1999 24.4136 51.3449 24.2653C51.5249 24.0774 52.4549 23.7858 53.2499 23.6622C53.3199 23.6523 53.3949 23.6375 53.4149 23.6326C53.4349 23.6326 53.4899 23.7116 53.5349 23.8105ZM54.3549 24.3691C54.8549 24.9573 55.4349 26.0101 55.6999 26.7911L55.8049 27.1174L55.7099 27.4832C55.4949 28.2889 54.9749 29.3615 54.3299 30.3254C52.9049 32.4558 50.9349 34.1908 48.6549 35.3178C48.3999 35.4414 48.1799 35.5353 48.1699 35.5254C48.1549 35.5155 48.1699 35.3969 48.1999 35.2684C48.3149 34.7543 48.2349 33.1231 48.0699 32.698C48.0499 32.6585 48.0749 32.614 48.1149 32.5942C48.1549 32.5794 48.1999 32.5102 48.2149 32.4361C48.2399 32.3322 48.3349 32.2532 48.6549 32.0802C50.2649 31.2102 51.8449 29.9102 52.6399 28.8029C53.5349 27.5573 53.9299 26.3759 53.9849 24.7744C53.9999 24.3295 54.0299 23.9835 54.0499 24.0082C54.0699 24.028 54.2049 24.1911 54.3549 24.3691ZM10.9497 26.4056C11.2947 26.5736 11.7147 26.7368 11.9847 26.806L12.4397 26.9197L12.8797 27.3744C13.3997 27.9231 14.2897 28.6744 15.0547 29.1984L15.6047 29.5839L15.4697 29.6828C14.1947 30.6071 13.7297 31.0916 13.3397 31.9121C13.2597 32.0851 13.1647 32.2284 13.1347 32.2284C12.9947 32.2284 11.6147 31.5068 11.0747 31.1509C10.4397 30.7357 9.56965 30.0189 9.08465 29.5197C8.92465 29.3516 8.75465 29.2033 8.70465 29.1885C8.62465 29.1638 8.61465 29.1341 8.65965 28.9562C8.78465 28.3976 9.26465 27.3398 9.58965 26.89C9.74965 26.6725 10.3147 26.0942 10.3497 26.109C10.3647 26.1189 10.6347 26.2524 10.9497 26.4056ZM16.4847 30.1079C18.0297 30.9927 19.4897 31.5315 21.2397 31.8627C21.3447 31.8824 21.3397 31.9022 21.0847 32.2186C20.3047 33.1775 19.8347 34.1661 19.7247 35.0707L19.6847 35.3524L19.5047 35.3178C19.4047 35.303 19.0197 35.214 18.6497 35.1201C16.3347 34.5418 14.8197 33.8547 13.8597 32.9452L13.4897 32.5992L13.6297 32.263C13.9047 31.5809 14.4297 30.9433 15.1747 30.3896C15.6347 30.0436 15.9197 29.8607 15.9847 29.8558C16.0147 29.8558 16.2397 29.9695 16.4847 30.1079ZM24.8747 32.9155C25.5997 33.6669 26.3748 34.2798 27.2248 34.7741C27.3048 34.8235 27.2898 34.8631 27.0748 35.1893C26.6848 35.7874 26.4698 36.4152 26.4398 37.033C26.4298 37.295 26.4098 37.3692 26.3498 37.3692C26.3098 37.3692 25.9598 37.3346 25.5747 37.295C23.4297 37.0676 21.9897 36.6425 20.6047 35.822L20.0897 35.5155L20.1197 35.1745C20.1997 34.3094 20.7497 33.2022 21.5497 32.2828L21.8397 31.9467L22.5097 31.9665C22.8747 31.9764 23.3447 31.9665 23.5497 31.9418L23.9247 31.8973L24.1997 32.1988C24.3497 32.3668 24.6547 32.6881 24.8747 32.9155ZM47.7999 33.4049C47.8699 33.9041 47.8449 35.1349 47.7499 35.5007C47.6999 35.7083 47.6599 35.7528 47.3799 35.9258C46.9899 36.173 46.2849 36.5239 45.7299 36.7513C45.2799 36.9342 43.8349 37.4186 43.7349 37.4186C43.6899 37.4186 43.6749 37.1912 43.6749 36.5635C43.6699 35.906 43.6499 35.6539 43.5849 35.4463C43.5399 35.2981 43.5049 35.1745 43.5149 35.1695C43.5199 35.1646 43.7299 35.0954 43.9749 35.0163C44.8749 34.7345 46.4799 33.8646 47.3499 33.1874C47.4999 33.0688 47.6499 32.9748 47.6799 32.9699C47.7099 32.9699 47.7599 33.1528 47.7999 33.4049ZM27.9848 35.1498C29.0048 35.5897 30.4348 35.8863 31.5548 35.8863H32.0448L31.8698 36.2521C31.6298 36.7711 31.5348 37.211 31.5648 37.6657C31.5798 37.8684 31.6098 38.081 31.6298 38.1304C31.6648 38.2243 31.6398 38.2243 30.6648 38.1947C29.2548 38.1452 28.1698 37.992 27.2498 37.7053L26.8748 37.5867L26.8598 37.1863C26.8448 36.7019 26.9398 36.2965 27.1798 35.8171C27.3798 35.4266 27.6348 35.046 27.6998 35.046C27.7198 35.046 27.8498 35.0904 27.9848 35.1498ZM37.3998 35.1399C39.0398 35.4414 39.6498 35.5106 40.7998 35.5106C41.5848 35.5106 41.9499 35.4908 42.3499 35.4216C43.1299 35.2832 43.1049 35.2783 43.1899 35.5403C43.2749 35.8022 43.3249 37.0479 43.2649 37.3642C43.2249 37.5669 43.2099 37.5867 42.9999 37.6509C41.9699 37.9574 39.8748 38.338 38.2498 38.5159C37.4848 38.595 34.6498 38.595 33.8998 38.5159C33.0198 38.4171 32.2348 38.3034 32.1448 38.254C32.0598 38.2095 31.9498 37.7696 31.9498 37.473C31.9498 37.0627 32.4048 35.8863 32.5648 35.8863C32.7598 35.8863 34.0098 35.7281 34.5148 35.6391C35.0148 35.5551 36.2748 35.2536 36.7748 35.1003C36.8598 35.0756 36.9698 35.0657 37.0248 35.0756C37.0798 35.0855 37.2498 35.1152 37.3998 35.1399Z" fill="black"/>
</svg>
